<svg xmlns="http://www.w3.org/2000/svg" xmlns:xlink="http://www.w3.org/1999/xlink" width="1700" height="1020" viewBox="0 0 1700 1020"><defs><clipPath id="a"><rect width="1700" height="1020" transform="translate(1300 1519)" fill="#fff" stroke="#707070" stroke-width="1"/></clipPath></defs><g transform="translate(-1300 -1519)" clip-path="url(#a)"><g transform="translate(1299.953 1607.696)"><g transform="translate(0 -55.787)"><g transform="translate(0 55.787)"><line y1="23.786" transform="translate(1632.677 428.85)" fill="none" stroke="#a8dab5" stroke-width="0.62"/><line y1="11.752" transform="translate(1632.677 407.351)" fill="none" stroke="#a8dab5" stroke-width="0.62"/><circle cx="4.873" cy="4.873" r="4.873" transform="translate(1627.804 419.104)" fill="none" stroke="#a8dab5" stroke-width="0.62"/><path d="M1443.091,205.588c7.757,0,16.081,17.236,16.081,42.9s-8.324,42.966-16.081,42.966-16.072-17.237-16.072-42.92,8.333-42.951,16.072-42.951m0-1.473c-9.679,0-17.533,19.87-17.533,44.377s7.837,44.392,17.533,44.392,17.533-19.869,17.533-44.392S1452.8,204.114,1443.091,204.114Z" fill="#fde293"/><line x2="84.052" transform="translate(1401.162 233.699)" fill="none" stroke="#fde293" stroke-width="0.832"/><path d="M1443.091,205.588a42.919,42.919,0,1,1-42.921,42.9,42.913,42.913,0,0,1,42.921-42.9m0-1.473a44.392,44.392,0,1,0,44.381,44.377,44.4,44.4,0,0,0-44.381-44.377Z" fill="#fde293"/><line x2="83.521" transform="translate(1401.427 263.284)" fill="none" stroke="#fde293" stroke-width="0.832"/><path d="M1700.047,618.016l-35.473-61.441-35.482,61.441" fill="#fad2cf"/><rect width="8.855" height="45.653" transform="translate(448.066 583.548)" fill="#fde293"/><rect width="41.525" height="102.464" transform="translate(736.432 7.725)" fill="#fad2cf"/><rect width="41.525" height="102.464" transform="translate(1451.742 440.07)" fill="#aecbfa"/><line x1="28.194" transform="translate(1437.654 516.46)" fill="none" stroke="#4285f4" stroke-width="0.832"/><line x1="28.194" transform="translate(1437.654 494.507)" fill="none" stroke="#4285f4" stroke-width="0.832"/><rect width="51.318" height="102.464" transform="translate(217.449 315.15)" fill="#fad2cf"/><path d="M121.5,80.84H223.968A36.636,36.636,0,0,0,187.332,44.2H158.14A36.636,36.636,0,0,0,121.5,80.84Z" fill="#fbbc04"/><rect width="88.362" height="102.464" transform="translate(22.408 685.851)" fill="#fde293"/><path d="M405.017,5.2,464.17,107.667V5.2Z" fill="#aecbfa"/><path d="M472.061,783.455l-51.241-29.584L369.6,842.609h0Z" fill="#4285f4"/><rect width="34.16" height="25.62" transform="translate(249.118 612.735)" fill="#ea4335"/><path d="M1651.52,74.223h26.1v25.62h-26.1Z" transform="translate(549.082 -1151.536) rotate(45)" fill="#4285f4"/><rect width="26.106" height="25.62" transform="translate(1651.689 760.564)" fill="#4285f4"/><rect width="25.62" height="25.62" transform="translate(1054.965 716.726)" fill="#ea4335"/><rect width="34.16" height="25.62" transform="translate(1625.691 219.581)" fill="#ea4335"/><path d="M1282.7,772.144l-36.235,36.229-24.148-24.148-18.109,18.068,24.165,24.147A38.422,38.422,0,0,0,1282.7,772.1Z" fill="#fbbc04"/><rect width="102.464" height="46.43" transform="translate(1203.668 191.232)" fill="#a8dab5"/><circle cx="6.519" cy="6.519" r="6.519" transform="translate(391.979 685.004)" fill="none" stroke="#aecbfa" stroke-width="0.832"/><path d="M595.624,94.481a5.046,5.046,0,1,1-5.046,5.03,5.046,5.046,0,0,1,5.046-5.03m0-1.473a6.5,6.5,0,1,0,4.608,1.9,6.52,6.52,0,0,0-4.608-1.9Z" fill="#fde293"/><path d="M595.624,119.772a5.046,5.046,0,1,1-5.046,5.03,5.046,5.046,0,0,1,5.046-5.03m0-1.473a6.5,6.5,0,1,0,4.608,1.9,6.52,6.52,0,0,0-4.608-1.9Z" fill="#fde293"/><path d="M595.624,69.19a5.046,5.046,0,1,1-5.046,5.03,5.046,5.046,0,0,1,5.046-5.03m0-1.473a6.5,6.5,0,1,0,4.608,1.9,6.52,6.52,0,0,0-4.608-1.9Z" fill="#fde293"/><path d="M313.026,513.291H323.54v10.515H313.026Z" transform="translate(459.89 -73.181) rotate(45)" fill="none" stroke="#ea4335" stroke-width="0.832" fill-rule="evenodd"/><path d="M296.754,210.371h8.759v8.759h-8.759Z" transform="translate(-63.652 275.831) rotate(-45)" fill="#a8dab5"/><path d="M281.031,194.624h8.759v8.759h-8.759Z" transform="translate(224.311 -143.528) rotate(45)" fill="none" stroke="#1e8e3e" stroke-width="0.832" fill-rule="evenodd"/><path d="M261.835,175.438h8.759V184.2h-8.759Z" transform="translate(205.122 -135.574) rotate(45)" fill="none" stroke="#a8dab5" stroke-width="0.832" fill-rule="evenodd"/><circle cx="6.19" cy="6.19" r="6.19" transform="translate(1276.191 76.218)" fill="none" stroke="#174ea6" stroke-width="0.832"/><circle cx="6.19" cy="6.19" r="6.19" transform="translate(1384.001 399.611)" fill="none" stroke="#174ea6" stroke-width="0.832"/><circle cx="9.982" cy="9.982" r="9.982" transform="translate(1275.648 594.09)" fill="#fde293"/><path d="M1478.6,765.2h12.114a25.62,25.62,0,1,0,0-51.225" fill="none" stroke="#e37400" stroke-width="0.832" fill-rule="evenodd"/><path d="M1194.432,672.188l-18.658-18.663-18.667,18.663" fill="none" stroke="#aecbfa" stroke-width="0.832" fill-rule="evenodd"/><path d="M853.626,162.958l26.732,26.717,26.717-26.717" fill="none" stroke="#aecbfa" stroke-width="0.824" fill-rule="evenodd"/><path d="M1615.817,344.892,1595.309,365.4a25.6,25.6,0,0,0,36.208,36.213l32.082-32.061" fill="none" stroke="#ea4335" stroke-width="0.832" fill-rule="evenodd"/><line x1="29.177" y2="29.177" transform="translate(1635.564 351.771)" fill="none" stroke="#ea4335" stroke-width="0.832"/><line x1="36.111" y2="36.103" transform="translate(1626.55 335.835)" fill="none" stroke="#ea4335" stroke-width="0.832"/><line x1="30.55" y2="30.571" transform="translate(1617.562 332.372)" fill="none" stroke="#ea4335" stroke-width="0.832"/><line y1="41.274" transform="translate(78.694 233.323)" fill="none" stroke="#4285f4" stroke-width="0.832"/><line y1="51.068" transform="translate(65.97 233.323)" fill="none" stroke="#4285f4" stroke-width="0.832"/><path d="M31.622,254.948H53.23V233.323" fill="none" stroke="#4285f4" stroke-width="0.832" fill-rule="evenodd"/><path d="M64.857,190.246a25.589,25.589,0,0,1,25.6,25.6v45.364" fill="none" stroke="#4285f4" stroke-width="0.832" fill-rule="evenodd"/><path d="M90.477,215.851a25.62,25.62,0,0,0-47.809-12.8" fill="none" stroke="#4285f4" stroke-width="0.832" fill-rule="evenodd"/><line x1="17.284" y2="30.274" transform="translate(25.385 203.049)" fill="none" stroke="#4285f4" stroke-width="0.832"/><path d="M1297.965,635.772l20.508,20.5a25.614,25.614,0,0,0,36.235-36.213l-17.728-17.738" fill="none" stroke="#34a853" stroke-width="0.832" fill-rule="evenodd"/><line x2="12.99" y2="12.99" transform="translate(1326.576 608.569)" fill="none" stroke="#34a853" stroke-width="0.832"/><line x2="15.071" y2="15.059" transform="translate(1315.498 615.495)" fill="none" stroke="#34a853" stroke-width="0.832"/><line x2="36.102" y2="36.103" transform="translate(1285.462 603.46)" fill="none" stroke="#34a853" stroke-width="0.832"/><line x1="7.961" y1="29.585" transform="translate(575.833 163.099)" fill="none" stroke="#fbbc04" stroke-width="0.832"/><path d="M583.793,192.683a25.62,25.62,0,0,0,50.378-6.613" fill="none" stroke="#fbbc04" stroke-width="0.832" fill-rule="evenodd"/><rect width="42.873" height="42.873" transform="translate(45.16 706.801)" fill="none" stroke="#fff" stroke-width="0.832"/><rect width="42.873" height="42.873" transform="translate(202.657 773.366)" fill="#a8dab5"/><line x1="45.395" y1="45.41" transform="translate(201.168 771.846)" fill="none" stroke="#fff" stroke-width="0.832"/><line y1="45.614" x2="45.599" transform="translate(201.168 772.144)" fill="none" stroke="#fff" stroke-width="0.832"/><circle cx="30.822" cy="30.822" r="30.822" transform="translate(1029.508 37.451)" fill="#fde293"/><path d="M1051.617,82.924l24.555-14.181-24.555-14.165Z" fill="none" stroke="#f9ab00" stroke-width="0.832" fill-rule="evenodd"/><path d="M299.293,349.436v44.219l-9.778-9.778-.423-.423H242.208V349.436h57.085m1.473-1.473H240.75v36.965h47.731L300.765,397.2V347.963Z" fill="#ea4335"/><line y2="41.336" transform="translate(280.803 745.521)" fill="none" stroke="#34a853" stroke-width="0.832"/><line y2="51.146" transform="translate(268.063 735.712)" fill="none" stroke="#34a853" stroke-width="0.832"/><path d="M238.431,765.2h16.877v21.655" fill="none" stroke="#34a853" stroke-width="0.832" fill-rule="evenodd"/><path d="M266.935,822.852A25.668,25.668,0,0,0,292.6,797.184v-38.25" fill="none" stroke="#34a853" stroke-width="0.832" fill-rule="evenodd"/><path d="M292.6,797.184a25.684,25.684,0,0,1-25.667,25.667h-28.5" fill="none" stroke="#34a853" stroke-width="0.832" fill-rule="evenodd"/><path d="M15.074,474.794a17.049,17.049,0,0,1,34.082,0v38.674H79.54" fill="none" stroke="#a8dab5" stroke-width="0.832" fill-rule="evenodd"/><path d="M77.487,474.794a17.033,17.033,0,0,1,34.066,0" fill="none" stroke="#34a853" stroke-width="0.832" fill-rule="evenodd"/><path d="M96.228,536.768a32.906,32.906,0,1,1-65.813,0Z" fill="#a8dab5"/><path d="M1475.4,16.782a14.509,14.509,0,1,1-29.018,0" fill="none" stroke="#ea4335" stroke-width="0.832" fill-rule="evenodd"/><path d="M1515.5,74.29a28.03,28.03,0,0,1-28.026,28.033" fill="none" stroke="#fad2cf" stroke-width="0.832" fill-rule="evenodd"/><path d="M1528.568,16.782a14.523,14.523,0,0,1-14.522,14.557,14.7,14.7,0,0,1-14.7-14.51L1475.4,57.884h25.883" fill="none" stroke="#ea4335" stroke-width="0.832" fill-rule="evenodd"/><rect width="25.871" height="16.782" transform="translate(1490.447)" fill="#fff"/><path d="M601.219,661.853h11.454v11.455H601.219Z" transform="translate(649.818 -233.645) rotate(45)" fill="#34a853"/><path d="M599.415,658.4H577.806v21.624" fill="none" stroke="#fbbc04" stroke-width="0.832" fill-rule="evenodd"/><path d="M566.226,723.1a25.621,25.621,0,0,1-25.6-25.6V652.127" fill="none" stroke="#fbbc04" stroke-width="0.832" fill-rule="evenodd"/><path d="M540.559,697.491a25.62,25.62,0,0,0,47.808,12.8" fill="none" stroke="#fbbc04" stroke-width="0.832" fill-rule="evenodd"/><line y1="30.274" x2="17.284" transform="translate(588.367 680.019)" fill="none" stroke="#fbbc04" stroke-width="0.832"/><path d="M16.829,232.492a15.294,15.294,0,1,0,.063,0m0-1.566a16.829,16.829,0,1,0,16.814,16.829,16.83,16.83,0,0,0-16.814-16.829Z" fill="#fde293"/><line y1="30.948" transform="translate(634.172 155.17)" fill="none" stroke="#fbbc04" stroke-width="0.832"/><line y1="25.071" transform="translate(621.275 151.252)" fill="none" stroke="#fbbc04" stroke-width="0.832"/><line y1="28.017" transform="translate(608.379 148.306)" fill="none" stroke="#fbbc04" stroke-width="0.832"/><line y1="51.522" transform="translate(595.483 124.801)" fill="none" stroke="#fbbc04" stroke-width="0.832"/><line x1="31.809" transform="translate(613.47 667.593)" fill="none" stroke="#a8dab5" stroke-width="0.832"/><line x1="13.523" transform="translate(586.925 667.593)" fill="none" stroke="#a8dab5" stroke-width="0.832"/><line y2="41.274" transform="translate(552.342 638.745)" fill="none" stroke="#fbbc04" stroke-width="0.832"/><line y2="51.068" transform="translate(565.066 628.951)" fill="none" stroke="#fbbc04" stroke-width="0.832"/></g></g></g></g></svg>