<?xml version="1.0" encoding="UTF-8"?>
<svg width="239px" height="22px" viewBox="0 0 239 22" version="1.1" xmlns="http://www.w3.org/2000/svg" xmlns:xlink="http://www.w3.org/1999/xlink">
    <!-- Generator: sketchtool 59 (101010) - https://sketch.com -->
    <title>E6A00B9C-F894-4E94-80E2-5E39CDE772F4</title>
    <desc>Created with sketchtool.</desc>
    <g id="Page-1" stroke="none" stroke-width="1" fill="none" fill-rule="evenodd">
        <g id="Devfest-Web-Home" transform="translate(-841.000000, -527.000000)" fill="#3D3D3D" fill-rule="nonzero">
            <g id="logo-cochabamba2019" transform="translate(841.000000, 527.000000)">
                <path d="M180.818616,20.8768496 L180.818616,18.4526253 L183.635882,15.6035666 L183.635882,15.6035666 L185.898399,13.2967882 C186.827948,12.3418876 187.520881,11.6172658 187.977208,11.1229117 L188.306426,10.7632982 C189.096904,9.88795023 189.643126,9.19024548 189.945107,8.67016706 C190.287353,8.08074487 190.458473,7.36774484 190.458473,6.53114558 C190.458473,5.960737 190.311119,5.42361032 190.016408,4.9197494 C189.721697,4.41588849 189.293897,4.00710181 188.732995,3.69337709 C188.172093,3.37965237 187.501873,3.22279236 186.722315,3.22279236 C185.69558,3.22279236 184.873253,3.52225238 184.25531,4.12118138 C183.637368,4.72011039 183.233334,5.37131709 183.043198,6.074821 L180.818616,5.19069212 C181.008752,4.58225631 181.350992,3.95006295 181.845346,3.29409308 C182.3397,2.63812321 183.005167,2.07722986 183.841766,1.61139618 C184.678365,1.14556251 185.667064,0.912649165 186.807876,0.912649165 C188.005734,0.912649165 189.065727,1.16932918 189.987888,1.6826969 C190.910048,2.19606462 191.627802,2.88054465 192.141169,3.73615752 C192.654537,4.59177039 192.911217,5.51391709 192.911217,6.5026253 C192.911217,8.49905533 191.865484,10.5620021 189.773986,12.6915274 L183.927327,18.5667064 L193.139379,18.5667064 L193.139379,20.8768496 L180.818616,20.8768496 Z M203.691885,21.3331742 C202.151782,21.3331742 200.787576,20.8816075 199.599224,19.9784606 C198.410873,19.0753137 197.498233,17.8489537 196.861277,16.2993437 C196.224321,14.7497337 195.905847,13.0242736 195.905847,11.1229117 C195.905847,9.22154976 196.224321,7.49608969 196.861277,5.94647971 C197.498233,4.39686974 198.40612,3.17050969 199.584964,2.26736277 C200.763809,1.36421585 202.132769,0.912649165 203.691885,0.912649165 C205.251002,0.912649165 206.619962,1.36421585 207.798807,2.26736277 C208.977651,3.17050969 209.885538,4.39686974 210.522494,5.94647971 C211.15945,7.49608969 211.477924,9.22154976 211.477924,11.1229117 C211.477924,13.0242736 211.15945,14.7497337 210.522494,16.2993437 C209.885538,17.8489537 208.972898,19.0753137 207.784547,19.9784606 C206.596195,20.8816075 205.231989,21.3331742 203.691885,21.3331742 Z M203.691885,19.023031 C204.775662,19.023031 205.716822,18.6760377 206.515394,17.9820406 C207.313966,17.2880435 207.931899,16.3421301 208.369212,15.1442721 C208.806526,13.9464141 209.025179,12.605974 209.025179,11.1229117 C209.025179,9.63984939 208.806526,8.29940933 208.369212,7.10155131 C207.931899,5.90369329 207.313966,4.95777992 206.515394,4.26378282 C205.716822,3.56978571 204.775662,3.22279236 203.691885,3.22279236 C202.608109,3.22279236 201.666949,3.56978571 200.868377,4.26378282 C200.069809,4.95777992 199.451872,5.90369329 199.014558,7.10155131 C198.577245,8.29940933 198.358592,9.63984939 198.358592,11.1229117 C198.358592,12.605974 198.577245,13.9464141 199.014558,15.1442721 C199.451872,16.3421301 200.069809,17.2880435 200.868377,17.9820406 C201.666949,18.6760377 202.608109,19.023031 203.691885,19.023031 Z M221.288902,1.36897375 L221.288902,20.8768496 L218.864678,20.8768496 L218.864678,4.76288783 L215.442243,7.21563246 L214.187351,5.36181384 L219.748807,1.36897375 L221.288902,1.36897375 Z M232.297733,0.912649165 C235.920536,0.912649165 238.857399,3.84951161 238.857399,7.47231504 C238.857399,7.61064393 238.853117,7.74797277 238.844679,7.88417625 C238.82517,8.4997923 238.825423,9.02071014 238.844189,9.44527324 L238.855108,9.64951756 L238.874283,9.98132465 C238.994725,12.2962407 238.823215,14.4461982 238.197353,16.2703585 C237.271371,18.9692553 235.406979,20.6222429 232.574833,20.722919 L232.297733,20.727799 L227.489675,20.727799 L227.489675,18.446176 L232.297733,18.446176 C235.118427,18.446176 236.416028,16.1362514 236.606848,12.4183864 C235.453934,13.4233889 233.946905,14.0319809 232.297733,14.0319809 C228.674929,14.0319809 225.738067,11.0951185 225.738067,7.47231504 C225.738067,3.84951161 228.674929,0.912649165 232.297733,0.912649165 Z M232.297733,3.19427208 C229.935035,3.19427208 228.01969,5.10961715 228.01969,7.47231504 C228.01969,9.83501292 229.935035,11.750358 232.297733,11.750358 C234.566533,11.750358 236.422831,9.98422614 236.566792,7.75179648 L236.575067,7.46264916 L236.570842,7.26503999 C236.462721,4.99860667 234.590939,3.19427208 232.297733,3.19427208 Z" id="2019"></path>
                <path d="M10.5810263,21.3331742 C8.60360984,21.3331742 6.80684977,20.8673475 5.19069212,19.9356802 C3.57453448,19.0040128 2.30539443,17.7253661 1.38323389,16.0997017 C0.461073353,14.4740372 -1.42108547e-14,12.6630171 -1.42108547e-14,10.6665871 C-1.42108547e-14,8.67015708 0.461073353,6.85913701 1.38323389,5.23347255 C2.30539443,3.6078081 3.57453448,2.32916138 5.19069212,1.39749403 C6.80684977,0.465826686 8.60360984,4.03233003e-13 10.5810263,4.03233003e-13 C12.1021158,4.03233003e-13 13.4948425,0.289953345 14.7592482,0.869868735 C16.0236539,1.44978412 17.1216739,2.27211083 18.0533413,3.33687351 L16.3136038,5.01957041 C15.5340454,4.08790306 14.6831987,3.40342303 13.7610382,2.96610979 C12.8388776,2.52879654 11.7788843,2.3101432 10.5810263,2.3101432 C9.09796395,2.3101432 7.73851055,2.65713655 6.5026253,3.35113365 C5.26674004,4.04513076 4.2828,5.02431746 3.55077566,6.28872315 C2.81875131,7.55312884 2.45274463,9.01240223 2.45274463,10.6665871 C2.45274463,12.320772 2.81875131,13.7800454 3.55077566,15.0444511 C4.2828,16.3088568 5.26674004,17.2880435 6.5026253,17.9820406 C7.73851055,18.6760377 9.09796395,19.023031 10.5810263,19.023031 C13.0527968,19.023031 15.1537702,18.0058177 16.8840095,15.9713604 L18.6522673,17.6825776 C17.7015863,18.8043811 16.5322663,19.6932545 15.1442721,20.3492243 C13.7562779,21.0051942 12.2352111,21.3331742 10.5810263,21.3331742 Z M28.3491647,21.3331742 C26.9231432,21.3331742 25.6397432,20.9909308 24.498926,20.3064439 C23.3581089,19.6219536 22.4692355,18.6903002 21.8322792,17.5114558 C21.195323,16.3326114 20.8768496,15.0301981 20.8768496,13.6041766 C20.8768496,12.1781552 21.195323,10.8757418 21.8322792,9.69689737 C22.4692355,8.51805298 23.3581089,7.58639618 24.498926,6.90190931 C25.6397432,6.21741901 26.9231432,5.875179 28.3491647,5.875179 C29.7751861,5.875179 31.0585862,6.21741901 32.1994033,6.90190931 C33.3402205,7.58639618 34.2290939,8.51805298 34.8660501,9.69689737 C35.5030064,10.8757418 35.8214797,12.1781552 35.8214797,13.6041766 C35.8214797,15.0301981 35.5030064,16.3326114 34.8660501,17.5114558 C34.2290939,18.6903002 33.3402205,19.6219536 32.1994033,20.3064439 C31.0585862,20.9909308 29.7751861,21.3331742 28.3491647,21.3331742 Z M28.3491647,19.1371122 C29.2428048,19.1371122 30.0746382,18.9137055 30.8446897,18.4668854 C31.6147413,18.0200654 32.2326747,17.3783654 32.6985084,16.5417661 C33.164342,15.7051669 33.3972554,14.7259802 33.3972554,13.6041766 C33.3972554,12.4823731 33.164342,11.5031864 32.6985084,10.6665871 C32.2326747,9.82998786 31.6147413,9.18828783 30.8446897,8.74146778 C30.0746382,8.29464773 29.2428048,8.07124105 28.3491647,8.07124105 C27.4555246,8.07124105 26.6189379,8.29464773 25.8393795,8.74146778 C25.0598211,9.18828783 24.4371344,9.82998786 23.9713007,10.6665871 C23.505467,11.5031864 23.2725537,12.4823731 23.2725537,13.6041766 C23.2725537,14.7259802 23.505467,15.7051669 23.9713007,16.5417661 C24.4371344,17.3783654 25.0598211,18.0200654 25.8393795,18.4668854 C26.6189379,18.9137055 27.4555246,19.1371122 28.3491647,19.1371122 Z M45.2331742,21.3331742 C43.8261664,21.3331742 42.5617797,20.9956875 41.4399761,20.3207041 C40.3181726,19.6457206 39.4435592,18.7235739 38.8161098,17.5542363 C38.1886603,16.3848987 37.8749403,15.0682253 37.8749403,13.6041766 C37.8749403,12.1401279 38.1886603,10.8187012 38.8161098,9.6398568 C39.4435592,8.4610124 40.3181726,7.5388657 41.4399761,6.87338902 C42.5617797,6.20791234 43.8261664,5.875179 45.2331742,5.875179 C46.8113046,5.875179 48.1374847,6.24118568 49.2117542,6.97321002 C50.2860237,7.70523437 51.0513104,8.67966774 51.5076372,9.89653938 L49.3115752,10.8091885 C48.9503164,9.91554844 48.4131897,9.23582174 47.700179,8.76998807 C46.9871683,8.30415439 46.1268149,8.07124105 45.1190931,8.07124105 C44.2634802,8.07124105 43.4649202,8.30415439 42.723389,8.76998807 C41.9818579,9.23582174 41.3876912,9.88702843 40.9408711,10.7236277 C40.4940511,11.5602269 40.2706444,12.5204003 40.2706444,13.6041766 C40.2706444,14.6879529 40.4940511,15.6481263 40.9408711,16.4847255 C41.3876912,17.3213248 41.9818579,17.9725315 42.723389,18.4383652 C43.4649202,18.9041988 44.2634802,19.1371122 45.1190931,19.1371122 C46.1458234,19.1371122 47.0299486,18.8994455 47.7714797,18.424105 C48.5130109,17.9487645 49.0643976,17.2737912 49.4256563,16.3991647 L51.5931981,17.3118138 C51.098844,18.5096719 50.3050373,19.4793519 49.2117542,20.2208831 C48.1184711,20.9624142 46.792291,21.3331742 45.2331742,21.3331742 Z M54.2170644,0.456324582 L56.6412888,0.456324582 L56.6412888,6.47410501 L56.5272076,8.47052506 L56.6412888,8.47052506 C57.0405748,7.72899391 57.6727681,7.11106055 58.5378878,6.61670644 C59.4030075,6.12235234 60.3489209,5.875179 61.3756563,5.875179 C63.1439229,5.875179 64.4938696,6.39329235 65.425537,7.42953461 C66.3572043,8.46577686 66.823031,9.83949025 66.823031,11.550716 L66.823031,20.8768496 L64.3988067,20.8768496 L64.3988067,11.9214797 C64.3988067,10.60954 64.0660733,9.63985994 63.4005967,9.0124105 C62.73512,8.38496106 61.8700133,8.07124105 60.8052506,8.07124105 C60.0447058,8.07124105 59.3459658,8.29940106 58.7090095,8.75572792 C58.0720533,9.21205479 57.5681999,9.80146815 57.1974344,10.5239857 C56.8266688,11.2465032 56.6412888,11.9975299 56.6412888,12.7770883 L56.6412888,20.8768496 L54.2170644,20.8768496 L54.2170644,0.456324582 Z M74.9513126,21.3331742 C73.88655,21.3331742 72.9358833,21.1240275 72.099284,20.7057279 C71.2626848,20.2874283 70.6162291,19.7122749 70.1599045,18.9802506 C69.7035777,18.2482263 69.4754177,17.4163929 69.4754177,16.4847255 C69.4754177,14.9446224 70.0553244,13.742029 71.2151551,12.8769093 C72.3749859,12.0117896 73.8390126,11.5792363 75.6072792,11.5792363 C76.4819057,11.5792363 77.2947258,11.6743029 78.0457637,11.8644391 C78.7968017,12.0545753 79.371955,12.2732287 79.7712411,12.5204057 L79.7712411,11.6362768 C79.7712411,10.5525005 79.3909744,9.68264051 78.6304296,9.02667064 C77.8698848,8.37070078 76.9097114,8.04272076 75.7498807,8.04272076 C74.932295,8.04272076 74.1812683,8.2185941 73.496778,8.57034606 C72.8122877,8.92209802 72.2704077,9.41169137 71.8711217,10.0391408 L70.0458234,8.67016706 C70.6162291,7.79554058 71.400532,7.11106055 72.398747,6.61670644 C73.396962,6.12235234 74.5044887,5.875179 75.7213604,5.875179 C77.6987768,5.875179 79.2531169,6.39329235 80.3844272,7.42953461 C81.5157376,8.46577686 82.0813842,9.87751692 82.0813842,11.6647971 L82.0813842,20.8768496 L79.7712411,20.8768496 L79.7712411,18.7948687 L79.6571599,18.7948687 C79.2388603,19.4983727 78.6114203,20.0972927 77.774821,20.5916468 C76.9382218,21.0860009 75.9970617,21.3331742 74.9513126,21.3331742 Z M75.1794749,19.1941527 C75.9970606,19.1941527 76.7575939,18.9850061 77.4610979,18.5667064 C78.1646018,18.1484068 78.7254951,17.5875135 79.1437947,16.8840095 C79.5620944,16.1805056 79.7712411,15.4104656 79.7712411,14.5738663 C79.3149142,14.2696484 78.7540208,14.0224751 78.0885442,13.8323389 C77.4230675,13.6422027 76.7195741,13.547136 75.978043,13.547136 C74.6470896,13.547136 73.6441362,13.8228294 72.9691527,14.3742243 C72.2941693,14.9256193 71.9566826,15.6386193 71.9566826,16.5132458 C71.9566826,17.3118178 72.2608959,17.9582712 72.8693317,18.4526253 C73.4777676,18.9469794 74.2478076,19.1941527 75.1794749,19.1941527 Z M92.8335322,21.3331742 C91.7307423,21.3331742 90.7372956,21.0812475 89.8531623,20.5773866 C88.969029,20.0735257 88.3083156,19.4603457 87.8710024,18.7378282 L87.7569212,18.7378282 L87.7569212,20.8768496 L85.446778,20.8768496 L85.446778,0.456324582 L87.8710024,0.456324582 L87.8710024,6.47410501 L87.7569212,8.49904535 L87.8710024,8.49904535 C88.3083156,7.75751419 88.969029,7.1348275 89.8531623,6.63096659 C90.7372956,6.12710567 91.7307423,5.875179 92.8335322,5.875179 C94.1264583,5.875179 95.3052851,6.20791234 96.3700477,6.87338902 C97.4348104,7.5388657 98.2713971,8.4610124 98.8798329,9.6398568 C99.4882688,10.8187012 99.7924821,12.1401279 99.7924821,13.6041766 C99.7924821,15.0872389 99.4882688,16.413419 98.8798329,17.5827566 C98.2713971,18.7520942 97.4348104,19.6694875 96.3700477,20.3349642 C95.3052851,21.0004409 94.1264583,21.3331742 92.8335322,21.3331742 Z M92.5483294,19.1371122 C93.3849286,19.1371122 94.173982,18.9089499 94.9155131,18.4526253 C95.6570443,17.9962984 96.251211,17.3450917 96.698031,16.4989857 C97.1448511,15.6528796 97.3682578,14.6879529 97.3682578,13.6041766 C97.3682578,12.5204003 97.1448511,11.5554736 96.698031,10.7093675 C96.251211,9.86326148 95.6570443,9.21205251 94.9155131,8.75572792 C94.173982,8.29940106 93.3849286,8.07124105 92.5483294,8.07124105 C91.7117301,8.07124105 90.9226767,8.29940106 90.1811456,8.75572792 C89.4396144,9.21205251 88.8502011,9.85850815 88.4128878,10.6951074 C87.9755746,11.5317066 87.7569212,12.5013867 87.7569212,13.6041766 C87.7569212,14.7069665 87.9755746,15.6766466 88.4128878,16.5132458 C88.8502011,17.3498451 89.4396144,17.9962984 90.1811456,18.4526253 C90.9226767,18.9089499 91.7117301,19.1371122 92.5483294,19.1371122 Z M107.264797,21.3331742 C106.200034,21.3331742 105.249368,21.1240275 104.412768,20.7057279 C103.576169,20.2874283 102.929714,19.7122749 102.473389,18.9802506 C102.017062,18.2482263 101.788902,17.4163929 101.788902,16.4847255 C101.788902,14.9446224 102.368809,13.742029 103.52864,12.8769093 C104.68847,12.0117896 106.152497,11.5792363 107.920764,11.5792363 C108.79539,11.5792363 109.60821,11.6743029 110.359248,11.8644391 C111.110286,12.0545753 111.68544,12.2732287 112.084726,12.5204057 L112.084726,11.6362768 C112.084726,10.5525005 111.704459,9.68264051 110.943914,9.02667064 C110.183369,8.37070078 109.223196,8.04272076 108.063365,8.04272076 C107.24578,8.04272076 106.494753,8.2185941 105.810263,8.57034606 C105.125772,8.92209802 104.583892,9.41169137 104.184606,10.0391408 L102.359308,8.67016706 C102.929714,7.79554058 103.714016,7.11106055 104.712232,6.61670644 C105.710447,6.12235234 106.817973,5.875179 108.034845,5.875179 C110.012261,5.875179 111.566601,6.39329235 112.697912,7.42953461 C113.829222,8.46577686 114.394869,9.87751692 114.394869,11.6647971 L114.394869,20.8768496 L112.084726,20.8768496 L112.084726,18.7948687 L111.970644,18.7948687 C111.552345,19.4983727 110.924905,20.0972927 110.088305,20.5916468 C109.251706,21.0860009 108.310546,21.3331742 107.264797,21.3331742 Z M107.492959,19.1941527 C108.310545,19.1941527 109.071078,18.9850061 109.774582,18.5667064 C110.478086,18.1484068 111.03898,17.5875135 111.457279,16.8840095 C111.875579,16.1805056 112.084726,15.4104656 112.084726,14.5738663 C111.628399,14.2696484 111.067505,14.0224751 110.402029,13.8323389 C109.736552,13.6422027 109.033059,13.547136 108.291527,13.547136 C106.960574,13.547136 105.957621,13.8228294 105.282637,14.3742243 C104.607654,14.9256193 104.270167,15.6386193 104.270167,16.5132458 C104.270167,17.3118178 104.57438,17.9582712 105.182816,18.4526253 C105.791252,18.9469794 106.561292,19.1941527 107.492959,19.1941527 Z M117.760263,6.33150358 L120.070406,6.33150358 L120.070406,8.47052506 L120.184487,8.47052506 C120.602786,7.72899391 121.230227,7.11106055 122.066826,6.61670644 C122.903425,6.12235234 123.787545,5.875179 124.719212,5.875179 C125.783975,5.875179 126.710875,6.13185901 127.49994,6.64522673 C128.289006,7.15859445 128.854652,7.84307448 129.196897,8.69868735 C129.710265,7.84307448 130.389992,7.15859445 131.236098,6.64522673 C132.082204,6.13185901 133.066144,5.875179 134.187947,5.875179 C135.861146,5.875179 137.120779,6.38378569 137.966885,7.40101432 C138.812992,8.41824295 139.236038,9.80146301 139.236038,11.550716 L139.236038,20.8768496 L136.840334,20.8768496 L136.840334,11.9214797 C136.840334,10.5715127 136.564641,9.59232603 136.013246,8.98389021 C135.461851,8.3754544 134.644277,8.07124105 133.560501,8.07124105 C132.837984,8.07124105 132.182024,8.28038773 131.592601,8.69868735 C131.003179,9.11698698 130.542106,9.67788033 130.209368,10.3813842 C129.876629,11.0848882 129.710263,11.8454215 129.710263,12.6630072 L129.710263,20.8768496 L127.286038,20.8768496 L127.286038,11.95 C127.286038,10.5810194 127.010345,9.59232603 126.45895,8.98389021 C125.907555,8.3754544 125.099488,8.07124105 124.034726,8.07124105 C123.312208,8.07124105 122.656248,8.28514106 122.066826,8.71294749 C121.477404,9.14075393 121.01633,9.71115395 120.683592,10.4241647 C120.350854,11.1371754 120.184487,11.9024621 120.184487,12.7200477 L120.184487,20.8768496 L117.760263,20.8768496 L117.760263,6.33150358 Z M150.102267,21.3331742 C148.999477,21.3331742 148.006031,21.0812475 147.121897,20.5773866 C146.237764,20.0735257 145.577051,19.4603457 145.139737,18.7378282 L145.025656,18.7378282 L145.025656,20.8768496 L142.715513,20.8768496 L142.715513,0.456324582 L145.139737,0.456324582 L145.139737,6.47410501 L145.025656,8.49904535 L145.139737,8.49904535 C145.577051,7.75751419 146.237764,7.1348275 147.121897,6.63096659 C148.006031,6.12710567 148.999477,5.875179 150.102267,5.875179 C151.395193,5.875179 152.57402,6.20791234 153.638783,6.87338902 C154.703545,7.5388657 155.540132,8.4610124 156.148568,9.6398568 C156.757004,10.8187012 157.061217,12.1401279 157.061217,13.6041766 C157.061217,15.0872389 156.757004,16.413419 156.148568,17.5827566 C155.540132,18.7520942 154.703545,19.6694875 153.638783,20.3349642 C152.57402,21.0004409 151.395193,21.3331742 150.102267,21.3331742 Z M149.817064,19.1371122 C150.653664,19.1371122 151.442717,18.9089499 152.184248,18.4526253 C152.925779,17.9962984 153.519946,17.3450917 153.966766,16.4989857 C154.413586,15.6528796 154.636993,14.6879529 154.636993,13.6041766 C154.636993,12.5204003 154.413586,11.5554736 153.966766,10.7093675 C153.519946,9.86326148 152.925779,9.21205251 152.184248,8.75572792 C151.442717,8.29940106 150.653664,8.07124105 149.817064,8.07124105 C148.980465,8.07124105 148.191412,8.29940106 147.449881,8.75572792 C146.70835,9.21205251 146.118936,9.85850815 145.681623,10.6951074 C145.24431,11.5317066 145.025656,12.5013867 145.025656,13.6041766 C145.025656,14.7069665 145.24431,15.6766466 145.681623,16.5132458 C146.118936,17.3498451 146.70835,17.9962984 147.449881,18.4526253 C148.191412,18.9089499 148.980465,19.1371122 149.817064,19.1371122 Z M165.30358,5.875179 C167.280996,5.875179 168.835336,6.39329235 169.966647,7.42953461 C171.097957,8.46577686 171.663604,9.87751692 171.663604,11.6647971 L171.663604,20.8768496 L169.353461,20.8768496 L169.353461,18.7948687 L169.239379,18.7948687 C168.82108,19.4983727 168.19364,20.0972927 167.357041,20.5916468 C166.520441,21.0860009 165.579281,21.3331742 164.533532,21.3331742 C163.46877,21.3331742 162.518103,21.1240275 161.681504,20.7057279 C160.844904,20.2874283 160.198449,19.7122749 159.742124,18.9802506 C159.285797,18.2482263 159.057637,17.4163929 159.057637,16.4847255 C159.057637,14.9446224 159.637544,13.742029 160.797375,12.8769093 C161.957205,12.0117896 163.421232,11.5792363 165.189499,11.5792363 C166.064125,11.5792363 166.876945,11.6743029 167.627983,11.8644391 C168.379021,12.0545753 168.954175,12.2732287 169.353461,12.5204057 L169.353461,11.6362768 C169.353461,10.5525005 168.973194,9.68264051 168.212649,9.02667064 C167.452104,8.37070078 166.491931,8.04272076 165.3321,8.04272076 C164.514515,8.04272076 163.763488,8.2185941 163.078998,8.57034606 C162.394507,8.92209802 161.852627,9.41169137 161.453341,10.0391408 L159.628043,8.67016706 C160.198449,7.79554058 160.982752,7.11106055 161.980967,6.61670644 C162.979182,6.12235234 164.086708,5.875179 165.30358,5.875179 Z M165.560263,13.547136 C164.229309,13.547136 163.226356,13.8228294 162.551372,14.3742243 C161.876389,14.9256193 161.538902,15.6386193 161.538902,16.5132458 C161.538902,17.3118178 161.843115,17.9582712 162.451551,18.4526253 C163.059987,18.9469794 163.830027,19.1941527 164.761695,19.1941527 C165.57928,19.1941527 166.339814,18.9850061 167.043317,18.5667064 C167.746821,18.1484068 168.307715,17.5875135 168.726014,16.8840095 C169.144314,16.1805056 169.353461,15.4104656 169.353461,14.5738663 C168.897134,14.2696484 168.33624,14.0224751 167.670764,13.8323389 C167.005287,13.6422027 166.301794,13.547136 165.560263,13.547136 Z" id="Cochabamba"></path>
            </g>
        </g>
    </g>
</svg>